# xmcd CD database file
#
# Track frame offsets:
#	150
#	4666
#	30389
#	50105
#	67497
#	84484
#	97144
#	111630
#	115713
#	132654
#	151947
#	174514
#
# Disc length: 2610 seconds
#
# Revision: 1
# Processed by: cddbd v1.5.2PL0 Copyright (c) Steve Scherf et al.
# Submitted via: CDex 1.51
#
DISCID=a90a300c
DTITLE=Dagoba - Poseidon
DYEAR=2010
DGENRE=Metal
TTITLE0=43 17'n/5 22'e
TTITLE1=Dead Lion Reef
TTITLE2=Columnae
TTITLE3=The Devil's Triangle
TTITLE4=Degree Zero
TTITLE5=The Horn Cape
TTITLE6=Black Smokers (752° Farenheit)
TTITLE7=Ha Long
TTITLE8=Shen Lung
TTITLE9=I Sea Red
TTITLE10=There's Blood Offshore
TTITLE11=Waves of Doom
EXTD=YEAR: 2010
EXTT0=
EXTT1=
EXTT2=
EXTT3=
EXTT4=
EXTT5=
EXTT6=
EXTT7=
EXTT8=
EXTT9=
EXTT10=
EXTT11=
PLAYORDER=
